<mxfile host="app.diagrams.net" modified="2021-04-26T16:44:52.667Z" agent="5.0 (X11)" etag="n1nHm-7uSxUVIjUtoe4h" version="14.4.9" type="github">
  <diagram id="hIE5qxGhwjbF6V91mKp8" name="Page-1">
    <mxGraphModel dx="774" dy="459" grid="1" gridSize="10" guides="1" tooltips="1" connect="1" arrows="1" fold="1" page="1" pageScale="1" pageWidth="827" pageHeight="1169" math="0" shadow="0">
      <root>
        <mxCell id="0" />
        <mxCell id="1" parent="0" />
        <mxCell id="ri8X8nQAgJQ1Y70DeWKT-2" value="connV" style="html=1;" vertex="1" parent="1">
          <mxGeometry x="288.25" y="295" width="50" height="20" as="geometry" />
        </mxCell>
        <mxCell id="ri8X8nQAgJQ1Y70DeWKT-5" value="v1.1 : vehicle" style="html=1;align=center;verticalAlign=top;rounded=1;absoluteArcSize=1;arcSize=10;dashed=0;" vertex="1" parent="1">
          <mxGeometry x="287.75" y="285" width="82.25" height="50" as="geometry" />
        </mxCell>
        <mxCell id="ri8X8nQAgJQ1Y70DeWKT-6" value="connV" style="html=1;" vertex="1" parent="1">
          <mxGeometry x="288.25" y="305" width="35" height="20" as="geometry" />
        </mxCell>
        <mxCell id="ri8X8nQAgJQ1Y70DeWKT-7" value="v1.2 : vehicle" style="html=1;align=center;verticalAlign=top;rounded=1;absoluteArcSize=1;arcSize=10;dashed=0;" vertex="1" parent="1">
          <mxGeometry x="408.25" y="285" width="90" height="50" as="geometry" />
        </mxCell>
        <mxCell id="ri8X8nQAgJQ1Y70DeWKT-8" value="iprov" style="html=1;" vertex="1" parent="1">
          <mxGeometry x="408.25" y="305" width="35" height="20" as="geometry" />
        </mxCell>
        <mxCell id="ri8X8nQAgJQ1Y70DeWKT-9" value="" style="rounded=0;orthogonalLoop=1;jettySize=auto;html=1;endArrow=none;endFill=0;exitX=1;exitY=0.5;exitDx=0;exitDy=0;" edge="1" parent="1" source="ri8X8nQAgJQ1Y70DeWKT-14" target="ri8X8nQAgJQ1Y70DeWKT-11">
          <mxGeometry relative="1" as="geometry">
            <mxPoint x="383.25" y="315" as="sourcePoint" />
          </mxGeometry>
        </mxCell>
        <mxCell id="ri8X8nQAgJQ1Y70DeWKT-10" value="" style="rounded=0;orthogonalLoop=1;jettySize=auto;html=1;endArrow=halfCircle;endFill=0;endSize=6;strokeWidth=1;" edge="1" parent="1" target="ri8X8nQAgJQ1Y70DeWKT-11">
          <mxGeometry relative="1" as="geometry">
            <mxPoint x="408.25" y="315" as="sourcePoint" />
            <mxPoint x="420.75" y="315" as="targetPoint" />
          </mxGeometry>
        </mxCell>
        <mxCell id="ri8X8nQAgJQ1Y70DeWKT-11" value="" style="ellipse;whiteSpace=wrap;html=1;fontFamily=Helvetica;fontSize=12;fontColor=#000000;align=center;strokeColor=#000000;fillColor=#ffffff;points=[];aspect=fixed;resizable=0;" vertex="1" parent="1">
          <mxGeometry x="380.75" y="310" width="10" height="10" as="geometry" />
        </mxCell>
        <mxCell id="ri8X8nQAgJQ1Y70DeWKT-13" value="" style="rounded=0;orthogonalLoop=1;jettySize=auto;html=1;endArrow=halfCircle;endFill=0;endSize=6;strokeWidth=1;" edge="1" parent="1">
          <mxGeometry relative="1" as="geometry">
            <mxPoint x="271.25" y="315" as="sourcePoint" />
            <mxPoint x="271.25" y="315" as="targetPoint" />
          </mxGeometry>
        </mxCell>
        <mxCell id="ri8X8nQAgJQ1Y70DeWKT-14" value="ireq" style="html=1;" vertex="1" parent="1">
          <mxGeometry x="340" y="305" width="30" height="20" as="geometry" />
        </mxCell>
        <mxCell id="ri8X8nQAgJQ1Y70DeWKT-15" value="ireq" style="html=1;" vertex="1" parent="1">
          <mxGeometry x="468.25" y="305" width="30" height="20" as="geometry" />
        </mxCell>
        <mxCell id="ri8X8nQAgJQ1Y70DeWKT-16" value="v1.3 : vehicle" style="html=1;align=center;verticalAlign=top;rounded=1;absoluteArcSize=1;arcSize=10;dashed=0;" vertex="1" parent="1">
          <mxGeometry x="538.25" y="285" width="90" height="50" as="geometry" />
        </mxCell>
        <mxCell id="ri8X8nQAgJQ1Y70DeWKT-17" value="iprov" style="html=1;" vertex="1" parent="1">
          <mxGeometry x="538.25" y="305" width="35" height="20" as="geometry" />
        </mxCell>
        <mxCell id="ri8X8nQAgJQ1Y70DeWKT-18" value="" style="rounded=0;orthogonalLoop=1;jettySize=auto;html=1;endArrow=none;endFill=0;exitX=1;exitY=0.5;exitDx=0;exitDy=0;" edge="1" parent="1" target="ri8X8nQAgJQ1Y70DeWKT-20">
          <mxGeometry relative="1" as="geometry">
            <mxPoint x="498.25" y="315" as="sourcePoint" />
          </mxGeometry>
        </mxCell>
        <mxCell id="ri8X8nQAgJQ1Y70DeWKT-19" value="" style="rounded=0;orthogonalLoop=1;jettySize=auto;html=1;endArrow=halfCircle;endFill=0;endSize=6;strokeWidth=1;" edge="1" parent="1" target="ri8X8nQAgJQ1Y70DeWKT-20">
          <mxGeometry relative="1" as="geometry">
            <mxPoint x="538.25" y="315" as="sourcePoint" />
            <mxPoint x="550.75" y="315" as="targetPoint" />
          </mxGeometry>
        </mxCell>
        <mxCell id="ri8X8nQAgJQ1Y70DeWKT-20" value="" style="ellipse;whiteSpace=wrap;html=1;fontFamily=Helvetica;fontSize=12;fontColor=#000000;align=center;strokeColor=#000000;fillColor=#ffffff;points=[];aspect=fixed;resizable=0;" vertex="1" parent="1">
          <mxGeometry x="510.75" y="310" width="10" height="10" as="geometry" />
        </mxCell>
        <mxCell id="ri8X8nQAgJQ1Y70DeWKT-22" value="p1" style="html=1;align=left;verticalAlign=top;rounded=1;absoluteArcSize=1;arcSize=10;dashed=0;" vertex="1" parent="1">
          <mxGeometry x="213.25" y="270" width="476.75" height="80" as="geometry" />
        </mxCell>
        <mxCell id="ri8X8nQAgJQ1Y70DeWKT-23" value="connV" style="html=1;" vertex="1" parent="1">
          <mxGeometry x="288.25" y="295" width="50" height="20" as="geometry" />
        </mxCell>
        <mxCell id="ri8X8nQAgJQ1Y70DeWKT-24" value="c1" style="html=1;align=center;verticalAlign=top;rounded=1;absoluteArcSize=1;arcSize=10;dashed=0;" vertex="1" parent="1">
          <mxGeometry x="287.75" y="285" width="82.25" height="50" as="geometry" />
        </mxCell>
        <mxCell id="ri8X8nQAgJQ1Y70DeWKT-25" value="iprov" style="html=1;" vertex="1" parent="1">
          <mxGeometry x="288.25" y="305" width="35" height="20" as="geometry" />
        </mxCell>
        <mxCell id="ri8X8nQAgJQ1Y70DeWKT-26" value="c2" style="html=1;align=center;verticalAlign=top;rounded=1;absoluteArcSize=1;arcSize=10;dashed=0;" vertex="1" parent="1">
          <mxGeometry x="408.25" y="285" width="90" height="50" as="geometry" />
        </mxCell>
        <mxCell id="ri8X8nQAgJQ1Y70DeWKT-27" value="iprov" style="html=1;" vertex="1" parent="1">
          <mxGeometry x="408.25" y="305" width="35" height="20" as="geometry" />
        </mxCell>
        <mxCell id="ri8X8nQAgJQ1Y70DeWKT-28" value="" style="rounded=0;orthogonalLoop=1;jettySize=auto;html=1;endArrow=none;endFill=0;exitX=1;exitY=0.5;exitDx=0;exitDy=0;" edge="1" parent="1" source="ri8X8nQAgJQ1Y70DeWKT-33" target="ri8X8nQAgJQ1Y70DeWKT-30">
          <mxGeometry relative="1" as="geometry">
            <mxPoint x="383.25" y="315" as="sourcePoint" />
          </mxGeometry>
        </mxCell>
        <mxCell id="ri8X8nQAgJQ1Y70DeWKT-29" value="" style="rounded=0;orthogonalLoop=1;jettySize=auto;html=1;endArrow=halfCircle;endFill=0;endSize=6;strokeWidth=1;" edge="1" parent="1" target="ri8X8nQAgJQ1Y70DeWKT-30">
          <mxGeometry relative="1" as="geometry">
            <mxPoint x="408.25" y="315" as="sourcePoint" />
            <mxPoint x="420.75" y="315" as="targetPoint" />
          </mxGeometry>
        </mxCell>
        <mxCell id="ri8X8nQAgJQ1Y70DeWKT-30" value="" style="ellipse;whiteSpace=wrap;html=1;fontFamily=Helvetica;fontSize=12;fontColor=#000000;align=center;strokeColor=#000000;fillColor=#ffffff;points=[];aspect=fixed;resizable=0;" vertex="1" parent="1">
          <mxGeometry x="380.75" y="310" width="10" height="10" as="geometry" />
        </mxCell>
        <mxCell id="ri8X8nQAgJQ1Y70DeWKT-31" value="idel" style="html=1;" vertex="1" parent="1">
          <mxGeometry x="213.25" y="305" width="35" height="20" as="geometry" />
        </mxCell>
        <mxCell id="ri8X8nQAgJQ1Y70DeWKT-32" value="" style="rounded=0;orthogonalLoop=1;jettySize=auto;html=1;endArrow=halfCircle;endFill=0;endSize=6;strokeWidth=1;" edge="1" parent="1">
          <mxGeometry relative="1" as="geometry">
            <mxPoint x="271.25" y="315" as="sourcePoint" />
            <mxPoint x="271.25" y="315" as="targetPoint" />
          </mxGeometry>
        </mxCell>
        <mxCell id="ri8X8nQAgJQ1Y70DeWKT-33" value="ireq" style="html=1;" vertex="1" parent="1">
          <mxGeometry x="340" y="305" width="30" height="20" as="geometry" />
        </mxCell>
        <mxCell id="ri8X8nQAgJQ1Y70DeWKT-34" value="ireq" style="html=1;" vertex="1" parent="1">
          <mxGeometry x="468.25" y="305" width="30" height="20" as="geometry" />
        </mxCell>
        <mxCell id="ri8X8nQAgJQ1Y70DeWKT-35" value="c3" style="html=1;align=center;verticalAlign=top;rounded=1;absoluteArcSize=1;arcSize=10;dashed=0;" vertex="1" parent="1">
          <mxGeometry x="538.25" y="285" width="90" height="50" as="geometry" />
        </mxCell>
        <mxCell id="ri8X8nQAgJQ1Y70DeWKT-36" value="iprov" style="html=1;" vertex="1" parent="1">
          <mxGeometry x="538.25" y="305" width="35" height="20" as="geometry" />
        </mxCell>
        <mxCell id="ri8X8nQAgJQ1Y70DeWKT-37" value="" style="rounded=0;orthogonalLoop=1;jettySize=auto;html=1;endArrow=none;endFill=0;exitX=1;exitY=0.5;exitDx=0;exitDy=0;" edge="1" parent="1" target="ri8X8nQAgJQ1Y70DeWKT-39">
          <mxGeometry relative="1" as="geometry">
            <mxPoint x="498.25" y="315" as="sourcePoint" />
          </mxGeometry>
        </mxCell>
        <mxCell id="ri8X8nQAgJQ1Y70DeWKT-38" value="" style="rounded=0;orthogonalLoop=1;jettySize=auto;html=1;endArrow=halfCircle;endFill=0;endSize=6;strokeWidth=1;" edge="1" parent="1" target="ri8X8nQAgJQ1Y70DeWKT-39">
          <mxGeometry relative="1" as="geometry">
            <mxPoint x="538.25" y="315" as="sourcePoint" />
            <mxPoint x="550.75" y="315" as="targetPoint" />
          </mxGeometry>
        </mxCell>
        <mxCell id="ri8X8nQAgJQ1Y70DeWKT-39" value="" style="ellipse;whiteSpace=wrap;html=1;fontFamily=Helvetica;fontSize=12;fontColor=#000000;align=center;strokeColor=#000000;fillColor=#ffffff;points=[];aspect=fixed;resizable=0;" vertex="1" parent="1">
          <mxGeometry x="510.75" y="310" width="10" height="10" as="geometry" />
        </mxCell>
        <mxCell id="ri8X8nQAgJQ1Y70DeWKT-40" value="" style="endArrow=none;html=1;entryX=0;entryY=0.5;entryDx=0;entryDy=0;exitX=1;exitY=0.5;exitDx=0;exitDy=0;" edge="1" parent="1" source="ri8X8nQAgJQ1Y70DeWKT-31" target="ri8X8nQAgJQ1Y70DeWKT-25">
          <mxGeometry width="50" height="50" relative="1" as="geometry">
            <mxPoint x="251" y="318" as="sourcePoint" />
            <mxPoint x="310" y="260" as="targetPoint" />
          </mxGeometry>
        </mxCell>
        <mxCell id="ri8X8nQAgJQ1Y70DeWKT-41" value="" style="rounded=0;orthogonalLoop=1;jettySize=auto;html=1;endArrow=none;endFill=0;exitX=1;exitY=0.5;exitDx=0;exitDy=0;" edge="1" parent="1" source="ri8X8nQAgJQ1Y70DeWKT-43" target="ri8X8nQAgJQ1Y70DeWKT-42">
          <mxGeometry relative="1" as="geometry">
            <mxPoint x="643.25" y="315" as="sourcePoint" />
          </mxGeometry>
        </mxCell>
        <mxCell id="ri8X8nQAgJQ1Y70DeWKT-42" value="" style="ellipse;whiteSpace=wrap;html=1;fontFamily=Helvetica;fontSize=12;fontColor=#000000;align=center;strokeColor=#000000;fillColor=#ffffff;points=[];aspect=fixed;resizable=0;" vertex="1" parent="1">
          <mxGeometry x="640.75" y="310" width="10" height="10" as="geometry" />
        </mxCell>
        <mxCell id="ri8X8nQAgJQ1Y70DeWKT-43" value="ireq" style="html=1;" vertex="1" parent="1">
          <mxGeometry x="598.25" y="305" width="30" height="20" as="geometry" />
        </mxCell>
        <mxCell id="ri8X8nQAgJQ1Y70DeWKT-45" value="" style="ellipse;whiteSpace=wrap;html=1;fontFamily=Helvetica;fontSize=12;fontColor=#000000;align=center;strokeColor=#000000;fillColor=#ffffff;points=[];aspect=fixed;resizable=0;" vertex="1" parent="1">
          <mxGeometry x="640.75" y="310" width="10" height="10" as="geometry" />
        </mxCell>
        <mxCell id="ri8X8nQAgJQ1Y70DeWKT-48" value="" style="shape=image;html=1;verticalAlign=top;verticalLabelPosition=bottom;labelBackgroundColor=#ffffff;imageAspect=0;aspect=fixed;image=https://cdn0.iconfinder.com/data/icons/pinpoint-notifocation/48/question-outline-128.png;fillColor=#FF170F;fontColor=#FF3912;" vertex="1" parent="1">
          <mxGeometry x="650.75" y="360" width="39" height="39" as="geometry" />
        </mxCell>
        <mxCell id="ri8X8nQAgJQ1Y70DeWKT-50" value="" style="endArrow=classic;html=1;fontColor=#FF3912;exitX=0.5;exitY=0;exitDx=0;exitDy=0;" edge="1" parent="1" source="ri8X8nQAgJQ1Y70DeWKT-48" target="ri8X8nQAgJQ1Y70DeWKT-45">
          <mxGeometry width="50" height="50" relative="1" as="geometry">
            <mxPoint x="510" y="380" as="sourcePoint" />
            <mxPoint x="650" y="370" as="targetPoint" />
          </mxGeometry>
        </mxCell>
      </root>
    </mxGraphModel>
  </diagram>
</mxfile>
